<svg width="22" height="22" viewBox="0 0 22 22" fill="none" xmlns="http://www.w3.org/2000/svg">
<g clip-path="url(#clip0_324_689)">
<path d="M15.8889 7.85714C15.8889 3.51607 12.333 0 7.94444 0C3.5559 0 0 3.51607 0 7.85714C0 9.54152 0.538542 11.0933 1.45139 12.375C0.939583 13.858 0.0954861 15.0366 0.0840278 15.0513C0 15.1643 -0.0229167 15.3313 0.0267361 15.4786C0.0763889 15.6259 0.183333 15.7143 0.305556 15.7143C1.70347 15.7143 2.86076 15.1103 3.6934 14.4866C4.92326 15.2576 6.37847 15.7143 7.94444 15.7143C12.333 15.7143 15.8889 12.1982 15.8889 7.85714ZM20.5486 18.6607C21.4615 17.3839 22 15.8272 22 14.1429C22 10.8576 19.9566 8.04375 17.0615 6.87009C17.0958 7.1942 17.1111 7.52321 17.1111 7.85714C17.1111 13.0576 12.9976 17.2857 7.94444 17.2857C7.53194 17.2857 7.1309 17.2464 6.73368 17.1924C7.93681 20.0161 10.7632 22 14.0556 22C15.6215 22 17.0767 21.5482 18.3066 20.7723C19.1392 21.396 20.2965 22 21.6944 22C21.8167 22 21.9274 21.9067 21.9733 21.7643C22.0229 21.6219 22 21.4549 21.916 21.3371C21.9045 21.3223 21.0604 20.1487 20.5486 18.6607Z" fill="white"/>
</g>
<defs>
<clipPath id="clip0_324_689">
<rect width="22" height="22" rx="5" fill="white"/>
</clipPath>
</defs>
</svg>
