<svg width="14" height="14" viewBox="0 0 14 14" fill="none" xmlns="http://www.w3.org/2000/svg">
<g clip-path="url(#clip0_208_252)">
<path d="M7 0.21875C3.25481 0.21875 0.21875 3.25481 0.21875 7C0.21875 10.7452 3.25481 13.7812 7 13.7812C10.7452 13.7812 13.7812 10.7452 13.7812 7C13.7812 3.25481 10.7452 0.21875 7 0.21875ZM10.2029 9.70028C10.1594 9.75133 9.11526 10.9507 7.19914 10.9507C4.88335 10.9507 3.24841 9.22097 3.24841 6.97039C3.24841 4.74726 4.94383 3.04927 7.1794 3.04927C9.01026 3.04927 9.96751 4.0696 10.0073 4.11305C10.0564 4.16655 10.0864 4.23484 10.0925 4.30719C10.0986 4.37955 10.0806 4.4519 10.0412 4.51289L9.42925 5.46049C9.31853 5.63186 9.07996 5.6615 8.93066 5.52325C8.92429 5.51739 8.20526 4.87028 7.23863 4.87028C5.97764 4.87028 5.21749 5.78834 5.21749 6.95064C5.21749 8.03351 5.91514 9.12972 7.2485 9.12972C8.30662 9.12972 9.0335 8.35486 9.04072 8.34701C9.18105 8.19484 9.42515 8.20939 9.5468 8.3758L10.218 9.29379C10.2616 9.35337 10.2838 9.4259 10.281 9.49966C10.2783 9.57341 10.2508 9.64409 10.2029 9.70028Z" fill="black"/>
</g>
<defs>
<clipPath id="clip0_208_252">
<rect width="14" height="14" fill="white"/>
</clipPath>
</defs>
</svg>
