<svg width="19" height="19" viewBox="0 0 19 19" fill="none" xmlns="http://www.w3.org/2000/svg">
<path d="M16.0068 4.52922L18.7354 2.7695C18.8003 2.72625 18.856 2.67065 18.8994 2.60586C18.9428 2.54107 18.9731 2.46837 18.9884 2.3919C19.0037 2.31543 19.0037 2.2367 18.9886 2.1602C18.9735 2.0837 18.9434 2.01093 18.9002 1.94604L18.571 1.45211C18.5278 1.38722 18.4722 1.33148 18.4074 1.28808C18.3426 1.24468 18.2699 1.21446 18.1934 1.19916C18.1169 1.18386 18.0382 1.18377 17.9617 1.19891C17.8852 1.21404 17.8124 1.24409 17.7476 1.28735L13.6633 3.92211C11.8167 3.59629 10.0648 3.56252 9.5 3.56252C8.14736 3.56252 0 3.73137 0 7.72434V13.6704C0 14.7937 1.02051 15.8108 2.67188 16.5597V12.7783C2.67188 12.5421 2.76571 12.3155 2.93273 12.1485C3.09976 11.9815 3.32629 11.8876 3.5625 11.8876C3.79871 11.8876 4.02524 11.9815 4.19227 12.1485C4.35929 12.3155 4.45312 12.5421 4.45312 12.7783V17.1917C5.67959 17.5298 7.09049 17.7506 8.60938 17.8125V13.9676C8.60938 13.7314 8.70321 13.5049 8.87023 13.3379C9.03726 13.1708 9.26379 13.077 9.5 13.077C9.73621 13.077 9.96274 13.1708 10.1298 13.3379C10.2968 13.5049 10.3906 13.7314 10.3906 13.9676V17.8125C11.9095 17.7506 13.3204 17.5298 14.5469 17.1917V12.7783C14.5469 12.5421 14.6407 12.3155 14.8077 12.1485C14.9748 11.9815 15.2013 11.8876 15.4375 11.8876C15.6737 11.8876 15.9002 11.9815 16.0673 12.1485C16.2343 12.3155 16.3281 12.5421 16.3281 12.7783V16.5597C17.9795 15.8108 19 14.7937 19 13.6704V7.72434C19 6.11676 17.673 5.13559 16.0068 4.52922ZM9.5 10.1027C5.23688 10.1027 1.78125 9.03801 1.78125 7.72434C1.78125 6.41067 5.23688 5.34637 9.5 5.34637C10.1364 5.34637 10.7517 5.37272 11.3436 5.41725L8.64166 7.16139C8.5768 7.20467 8.52109 7.26029 8.47772 7.32509C8.43436 7.3899 8.40418 7.46261 8.38892 7.53907C8.37365 7.61554 8.37359 7.69426 8.38875 7.77075C8.40391 7.84723 8.43399 7.91999 8.47727 7.98485L8.80643 8.47877C8.84967 8.54367 8.90528 8.59941 8.97006 8.64281C9.03485 8.68621 9.10756 8.71643 9.18402 8.73173C9.26049 8.74703 9.33922 8.74711 9.41573 8.73198C9.49223 8.71685 9.565 8.6868 9.62988 8.64354L14.0325 5.80393C15.9604 6.2344 17.2188 6.93354 17.2188 7.72434C17.2188 9.03801 13.7628 10.1027 9.5 10.1027Z" fill="white"/>
</svg>
