<svg width="27" height="27" viewBox="0 0 27 27" fill="none" xmlns="http://www.w3.org/2000/svg">
<g clip-path="url(#clip0_334_1824)">
<path d="M17.3601 2.5049C17.4234 1.81935 18.4834 1.76662 19.2902 2.04611C19.3377 2.06193 20.6718 2.55764 20.2921 2.84767C18.8209 2.45744 17.3179 3.80744 17.3601 2.5049ZM6.7605 2.86877C8.37945 2.44162 10.03 3.92346 9.98257 2.49435C9.91402 1.74553 8.74859 1.68752 7.86265 1.9881C7.80992 2.00392 6.34917 2.54182 6.7605 2.86877ZM17.6871 8.43752C17.223 8.43752 16.8433 8.8172 16.8433 9.28127C16.8433 9.74533 17.223 10.125 17.6871 10.125C18.1511 10.125 18.5308 9.74533 18.5308 9.28127C18.5308 8.8172 18.1511 8.43752 17.6871 8.43752ZM9.26538 8.43752C8.80132 8.43752 8.42163 8.8172 8.42163 9.28127C8.42163 9.74533 8.80132 10.125 9.26538 10.125C9.72945 10.125 10.1091 9.74533 10.1091 9.28127C10.1091 8.8172 9.72945 8.43752 9.26538 8.43752ZM26.0613 17.0438C25.5392 18.3094 23.915 17.6238 22.6916 16.9805C21.9796 20.6244 19.6277 22.8551 16.0312 23.5301C16.047 23.5776 15.9257 23.5248 17.2968 23.5828C19.0687 23.6567 20.6613 23.4194 22.4332 23.161C21.389 22.4332 21.832 21.2045 21.9164 21.1518C21.9902 21.1043 22.6916 21.2414 23.0554 21.7582C23.5089 21.099 24.5531 20.9778 24.648 21.041C24.7324 21.099 24.996 22.1432 24.2841 22.8656C24.532 22.8182 24.7166 22.7813 24.8009 22.7549C24.938 22.7127 25.7343 23.3508 24.9644 23.4563C24.2103 23.5776 23.7726 23.7252 22.4806 24.0258C20.0601 24.5901 17.9507 24.6481 16.2738 24.7008L16.3265 25.3125C16.5269 26.267 15.0925 26.594 14.871 25.6395C14.9132 26.5834 13.4419 26.7891 13.3734 25.5867L13.347 25.8662C13.3101 26.8365 11.8494 26.8102 11.8546 25.8346C11.4591 26.5465 10.3728 26.1932 10.4625 25.3863L10.5257 24.7324C8.59038 24.7799 7.37749 24.8959 7.26675 24.8959C6.1646 24.8959 6.1646 23.2295 7.26675 23.2295C7.39331 23.2295 8.72749 23.2981 10.5996 23.3772C7.37749 22.5598 5.13101 20.4768 4.54038 17.144C3.22202 17.819 1.50816 18.5572 0.9439 17.1861C0.390189 15.8467 2.07769 14.9397 4.46656 13.3154C4.50347 12.9674 4.55093 12.6141 4.60894 12.2713C3.84956 11.2377 3.99722 10.357 3.75992 9.08615C2.87398 9.21271 2.53648 8.60627 2.51538 7.86799C2.5312 7.48303 2.62613 7.08224 2.64195 7.05588C2.69995 6.96096 3.17456 6.95041 3.31167 6.91877C3.62808 5.24709 5.98003 5.16799 8.10523 5.09943C9.1441 3.94982 10.4888 2.91096 12.3714 2.55236C11.5646 1.52932 12.1921 0.44826 12.2449 0.421893C12.3345 0.379706 13.3628 0.648651 13.6318 1.64533C13.906 1.18127 14.5968 1.04416 14.6654 1.08107C14.7234 1.11271 15.0029 1.87209 14.407 2.44689C16.5322 2.63146 18.2144 3.74943 19.4695 5.12053C21.3732 5.19963 23.2558 5.43166 23.5353 6.91349C23.6777 6.94514 24.147 6.95568 24.205 7.0506C24.2209 7.07697 24.3158 7.47775 24.3316 7.86271C24.3052 8.59572 23.973 9.20217 23.0871 9.08088C22.9183 9.99318 22.9447 10.8158 22.6283 11.5963C22.7548 12.2133 22.8392 12.8514 22.8814 13.5158C24.8326 14.8553 26.5886 15.757 26.0613 17.0438ZM11.7808 8.43224C11.8283 6.11193 9.78218 6.20685 7.63589 6.30705C6.49156 6.35978 5.58453 6.40724 5.23648 7.04006C4.63531 8.14221 5.54761 11.9391 6.45992 12.3768C6.97671 12.6246 10.3306 12.7934 11.0109 12.0024C11.4433 11.5067 11.8019 9.39728 11.7808 8.43224ZM14.523 11.5067C14.2962 10.8528 14.2066 9.91935 13.7162 9.78224C13.6107 9.75588 13.2416 9.75588 13.1361 9.78224C12.6087 9.9299 12.5666 10.9477 12.2396 11.744C13.0517 11.744 13.2574 12.2555 13.4894 12.2555C13.7162 12.2555 13.8216 11.6596 14.523 11.5067ZM21.6791 7.04006C21.331 6.40197 20.3712 6.35978 19.2269 6.30705C17.107 6.20685 15.1031 6.10666 15.1505 8.43224C15.1242 9.39728 15.4142 11.5067 15.8466 12.0076C16.5322 12.7934 19.8861 12.6299 20.3976 12.382C21.2308 11.9813 22.3224 8.22131 21.6791 7.04006Z" fill="white"/>
</g>
<defs>
<clipPath id="clip0_334_1824">
<rect width="27" height="27" fill="white"/>
</clipPath>
</defs>
</svg>
