<svg width="16" height="17" viewBox="0 0 16 17" fill="none" xmlns="http://www.w3.org/2000/svg">
<path d="M10.6257 10.2758C10.3048 10.6605 9.90331 10.9701 9.44958 11.1825C8.99585 11.3949 8.50099 11.505 8 11.505C7.49902 11.505 7.00415 11.3949 6.55042 11.1825C6.0967 10.9701 5.6952 10.6605 5.37433 10.2758C5.31145 10.2002 5.2343 10.1377 5.14728 10.092C5.06026 10.0462 4.96507 10.018 4.86716 10.009C4.76925 10.0001 4.67053 10.0104 4.57663 10.0396C4.48274 10.0688 4.3955 10.1162 4.31992 10.179C4.24433 10.2419 4.18187 10.3191 4.13611 10.4061C4.09034 10.4931 4.06216 10.5883 4.05318 10.6862C4.03503 10.884 4.09619 11.0808 4.22318 11.2335C4.68449 11.7875 5.26202 12.2333 5.91483 12.5392C6.56764 12.8451 7.27975 13.0037 8.00069 13.0037C8.72163 13.0037 9.43374 12.8451 10.0866 12.5392C10.7394 12.2333 11.3169 11.7875 11.7782 11.2335C11.8458 11.1584 11.8975 11.0705 11.9303 10.975C11.963 10.8795 11.9761 10.7783 11.9688 10.6776C11.9614 10.5769 11.9338 10.4787 11.8875 10.389C11.8413 10.2992 11.7774 10.2198 11.6996 10.1553C11.6219 10.0909 11.5319 10.0429 11.4351 10.0141C11.3383 9.98535 11.2367 9.97646 11.1364 9.98797C11.0361 9.99948 10.9391 10.0312 10.8513 10.0811C10.7636 10.131 10.6868 10.1982 10.6257 10.2785V10.2758ZM5.47245 7.99974C5.67022 8.00001 5.86363 7.94167 6.02825 7.83208C6.19287 7.72249 6.32133 7.56657 6.39739 7.38401C6.47345 7.20146 6.4937 7.00046 6.45558 6.8064C6.41747 6.61234 6.3227 6.43393 6.18325 6.2937C6.04379 6.15348 5.86591 6.05772 5.67206 6.01854C5.47822 5.97936 5.27711 5.9985 5.09413 6.07355C4.91116 6.1486 4.75454 6.27619 4.64404 6.44021C4.53354 6.60423 4.47413 6.79731 4.47331 6.99508C4.47616 7.25969 4.58217 7.51275 4.76877 7.70039C4.95538 7.88803 5.20785 7.99543 5.47245 7.99974ZM10.5027 6.1286C10.0894 6.11094 9.68181 6.23056 9.3436 6.46878C9.00538 6.70701 8.7555 7.05046 8.63293 7.44558C8.62128 7.52143 8.6333 7.59902 8.66735 7.66779C8.7014 7.73655 8.75583 7.79315 8.82321 7.82986C8.89059 7.86657 8.96765 7.88162 9.0439 7.87294C9.12014 7.86427 9.19185 7.8323 9.24927 7.78139L9.54776 7.51606C9.82551 7.31612 10.1591 7.20854 10.5013 7.20854C10.8435 7.20854 11.1771 7.31612 11.4548 7.51606L11.7478 7.77863C11.8053 7.83045 11.8774 7.8633 11.9543 7.87273C12.0312 7.88216 12.1091 7.86771 12.1774 7.83134C12.2458 7.79496 12.3013 7.73844 12.3365 7.66943C12.3716 7.60041 12.3846 7.52226 12.3738 7.44558C12.2559 7.04739 12.0069 6.70069 11.6673 6.46166C11.3277 6.22263 10.9173 6.10527 10.5027 6.1286ZM8 0.5C6.41775 0.5 4.87103 0.969192 3.55544 1.84824C2.23985 2.72729 1.21447 3.97672 0.608967 5.43853C0.00346627 6.90034 -0.15496 8.50887 0.153721 10.0607C0.462403 11.6126 1.22433 13.038 2.34315 14.1569C3.46197 15.2757 4.88743 16.0376 6.43928 16.3463C7.99113 16.655 9.59966 16.4965 11.0615 15.891C12.5233 15.2855 13.7727 14.2602 14.6518 12.9446C15.5308 11.629 16 10.0822 16 8.5C16 6.37827 15.1571 4.34344 13.6569 2.84315C12.1566 1.34285 10.1217 0.5 8 0.5ZM8 15.0006C6.7154 15.0006 5.45964 14.6197 4.39153 13.906C3.32342 13.1923 2.49093 12.1779 1.99933 10.9911C1.50774 9.80426 1.37911 8.49832 1.62973 7.2384C1.88034 5.97848 2.49894 4.82117 3.40729 3.91281C4.31564 3.00446 5.47295 2.38587 6.73288 2.13525C7.9928 1.88464 9.29874 2.01326 10.4856 2.50486C11.6724 2.99646 12.6868 3.82895 13.4005 4.89706C14.1141 5.96517 14.4951 7.22092 14.4951 8.50553C14.4918 10.2271 13.8064 11.8773 12.5891 13.0946C11.3717 14.312 9.72159 14.9973 8 15.0006Z" fill="#71717A"/>
</svg>
