<svg width="23" height="23" viewBox="0 0 23 23" fill="none" xmlns="http://www.w3.org/2000/svg">
<rect width="23" height="23" rx="11.5" fill="#FF8832"/>
<path d="M16.4912 6.36677L14.9919 16.0946C14.9749 16.2078 14.9323 16.3157 14.8672 16.4099C14.8022 16.504 14.7164 16.5821 14.6165 16.6379C14.5166 16.6938 14.4052 16.726 14.2909 16.7321C14.1766 16.7382 14.0624 16.718 13.9571 16.6731L11.0898 15.4747L9.89775 17.262C9.85726 17.3345 9.79809 17.3948 9.72639 17.4366C9.65469 17.4785 9.57308 17.5004 9.49006 17.5C9.3608 17.5 9.23684 17.4486 9.14544 17.3572C9.05404 17.2658 9.00269 17.1418 9.00269 17.0126V14.7596C9.00213 14.593 9.05711 14.431 9.15894 14.2991L14.2499 7.75247L7.36881 13.9462L4.96508 12.9465C4.8319 12.891 4.71748 12.7984 4.63547 12.6797C4.55346 12.561 4.50732 12.4212 4.50254 12.277C4.49076 12.1367 4.52011 11.996 4.587 11.8721C4.6539 11.7482 4.75543 11.6465 4.87919 11.5795L15.3789 5.59889C15.5012 5.52887 15.6409 5.49481 15.7818 5.50064C15.9227 5.50647 16.059 5.55193 16.1752 5.63182C16.2914 5.71171 16.3827 5.82276 16.4386 5.95223C16.4945 6.08169 16.5127 6.2243 16.4912 6.36366V6.36677Z" fill="white"/>
</svg>
