<svg width="47" height="45" viewBox="0 0 47 45" fill="none" xmlns="http://www.w3.org/2000/svg">
<path d="M7.83334 34.238V30.488H11.75V17.363C11.75 14.7693 12.566 12.4646 14.1979 10.449C15.8299 8.43335 17.9514 7.11304 20.5625 6.48804V5.17554C20.5625 4.39429 20.8481 3.73022 21.4193 3.18335C21.9905 2.63647 22.684 2.36304 23.5 2.36304C24.316 2.36304 25.0096 2.63647 25.5807 3.18335C26.1519 3.73022 26.4375 4.39429 26.4375 5.17554V6.48804C29.0486 7.11304 31.1701 8.43335 32.8021 10.449C34.434 12.4646 35.25 14.7693 35.25 17.363V30.488H39.1667V34.238H7.83334ZM23.5 39.863C22.4229 39.863 21.5009 39.4958 20.7339 38.7615C19.9669 38.0271 19.5833 37.1443 19.5833 36.113H27.4167C27.4167 37.1443 27.0332 38.0271 26.2662 38.7615C25.4991 39.4958 24.5771 39.863 23.5 39.863ZM15.6667 30.488H31.3333V17.363C31.3333 15.3005 30.5663 13.5349 29.0323 12.0662C27.4983 10.5974 25.6542 9.86304 23.5 9.86304C21.3458 9.86304 19.5017 10.5974 17.9677 12.0662C16.4337 13.5349 15.6667 15.3005 15.6667 17.363V30.488Z" fill="#F5F5F5"/>
</svg>
