<svg width="28" height="28" viewBox="0 0 28 28" fill="none" xmlns="http://www.w3.org/2000/svg">
<path fill-rule="evenodd" clip-rule="evenodd" d="M14 24.5C19.799 24.5 24.5 19.799 24.5 14C24.5 8.20101 19.799 3.5 14 3.5C8.20101 3.5 3.5 8.20101 3.5 14C3.5 19.799 8.20101 24.5 14 24.5ZM15 7.58333C15 7.03105 14.5523 6.58333 14 6.58333C13.4477 6.58333 13 7.03105 13 7.58333V13.75C13 14.4404 13.5596 15 14.25 15H18.0833C18.6356 15 19.0833 14.5523 19.0833 14C19.0833 13.4477 18.6356 13 18.0833 13H15V7.58333Z" fill="white"/>
</svg>
