<svg width="995" height="59" viewBox="0 0 995 59" fill="none" xmlns="http://www.w3.org/2000/svg">
<path d="M37.3613 53.2856C36.9107 50.7865 35.3853 48.5091 33.0692 46.8777C30.7531 45.2464 27.8043 44.3723 24.7722 44.4184C21.7401 44.4644 18.8315 45.4275 16.5882 47.1281C14.345 48.8287 12.9202 51.151 12.5793 53.6621" stroke="#222222"/>
<circle cx="25" cy="29.8334" r="6.25" stroke="#222222" stroke-linecap="round"/>
<rect x="4.6665" y="13.6666" width="40.6667" height="40.6667" rx="3.5" stroke="#222222"/>
<path d="M352.361 44.2856C351.911 41.7865 350.385 39.5091 348.069 37.8777C345.753 36.2464 342.804 35.3723 339.772 35.4184C336.74 35.4644 333.831 36.4275 331.588 38.1281C329.345 39.8287 327.92 42.151 327.579 44.6621" stroke="#222222"/>
<circle cx="340" cy="20.8334" r="6.25" stroke="#222222" stroke-linecap="round"/>
<rect x="319.667" y="4.66663" width="40.6667" height="40.6667" rx="3.5" stroke="#222222"/>
<path d="M667.361 47.2856C666.911 44.7865 665.385 42.5091 663.069 40.8777C660.753 39.2464 657.804 38.3723 654.772 38.4184C651.74 38.4644 648.831 39.4275 646.588 41.1281C644.345 42.8287 642.92 45.151 642.579 47.6621" stroke="#222222"/>
<circle cx="655" cy="23.8334" r="6.25" stroke="#222222" stroke-linecap="round"/>
<rect x="634.667" y="7.66663" width="40.6667" height="40.6667" rx="3.5" stroke="#222222"/>
<path d="M982.361 50.2856C981.911 47.7865 980.385 45.5091 978.069 43.8777C975.753 42.2464 972.804 41.3723 969.772 41.4184C966.74 41.4644 963.831 42.4275 961.588 44.1281C959.345 45.8287 957.92 48.151 957.579 50.6621" stroke="#222222"/>
<circle cx="970" cy="26.8334" r="6.25" stroke="#222222" stroke-linecap="round"/>
<rect x="949.667" y="10.6666" width="40.6667" height="40.6667" rx="3.5" stroke="#222222"/>
</svg>
