<svg width="20" height="12" viewBox="0 0 20 12" fill="none" xmlns="http://www.w3.org/2000/svg">
<path d="M19.5207 9.99112C18.774 9.92027 18.0587 9.68114 17.5099 9.31507C17.0203 8.98738 16.3222 8.98147 15.836 9.31507C14.5198 10.2125 12.1132 10.2125 10.7762 9.27079C10.3073 8.94014 9.63012 9.00214 9.15435 9.32392C7.83468 10.2125 5.4419 10.2096 4.11182 9.27374C3.64299 8.94309 2.95537 9.01099 2.47612 9.33278C1.93783 9.69295 1.2259 9.92617 0.472303 9.99407C0.197951 10.0177 0 10.2243 0 10.4576V11.4082C0 11.6768 0.263934 11.9041 0.579961 11.8805C1.58013 11.8067 2.52821 11.544 3.33738 11.1159C5.29952 12.1374 8.09514 12.1226 10.0052 11.1159C11.9673 12.1374 14.7629 12.1226 16.673 11.1159C17.4822 11.5351 18.4407 11.8038 19.42 11.8776C19.736 11.9012 20 11.6739 20 11.4052V10.4723C20.0034 10.2362 19.802 10.0177 19.5207 9.99112ZM19.5207 5.73997C18.774 5.66911 18.0587 5.42999 17.5099 5.06392C17.0203 4.73622 16.3222 4.73032 15.836 5.06392C14.5198 5.96138 12.1132 5.96138 10.7762 5.01963C10.3073 4.68899 9.63012 4.75098 9.15435 5.07277C7.83468 5.96138 5.4419 5.95843 4.11182 5.02258C3.64299 4.69194 2.95537 4.75984 2.47612 5.08163C1.93783 5.4418 1.2259 5.67502 0.472303 5.74292C0.197951 5.76654 0 5.97319 0 6.20641V7.15702C0 7.42567 0.263934 7.65299 0.579961 7.62937C1.58013 7.55556 2.52821 7.29282 3.33738 6.86475C5.29952 7.88621 8.09514 7.87145 10.0052 6.86475C11.9673 7.88621 14.7629 7.87145 16.673 6.86475C17.4822 7.28396 18.4407 7.55261 19.42 7.62642C19.736 7.65003 20 7.42271 20 7.15407V6.22117C20.0034 5.985 19.802 5.76654 19.5207 5.73997ZM19.5207 1.48881C18.774 1.41501 18.0587 1.17883 17.5099 0.812762C17.0203 0.485069 16.3222 0.479164 15.836 0.812762C14.5198 1.71023 12.1132 1.71023 10.7762 0.768479C10.3073 0.437834 9.63012 0.49983 9.15435 0.821618C7.83468 1.71023 5.4419 1.70728 4.11182 0.771431C3.64299 0.440786 2.95537 0.508686 2.47612 0.830475C1.93783 1.19064 1.2259 1.42387 0.472303 1.49177C0.197951 1.51538 0 1.72204 0 1.95526V2.90586C0 3.17451 0.263934 3.40183 0.579961 3.37821C1.58013 3.30441 2.52821 3.04167 3.33738 2.6136C5.29952 3.63506 8.09514 3.62029 10.0052 2.6136C11.9673 3.63506 14.7629 3.62029 16.673 2.6136C17.4822 3.03281 18.4407 3.30146 19.42 3.37526C19.736 3.39888 20 3.17156 20 2.90291V1.97002C20.0034 1.73384 19.802 1.51538 19.5207 1.48881Z" fill="white"/>
</svg>
