<svg width="127" height="25" viewBox="0 0 127 25" fill="none" xmlns="http://www.w3.org/2000/svg">
<g clip-path="url(#clip0_208_257)">
<path d="M24.6094 12.5C24.6094 5.81055 19.1895 0.390625 12.5 0.390625C5.81055 0.390625 0.390625 5.81055 0.390625 12.5C0.390625 18.5439 4.81885 23.5537 10.6079 24.4629V16.0005H7.53174V12.5H10.6079V9.83203C10.6079 6.79736 12.4146 5.12109 15.1816 5.12109C16.5068 5.12109 17.8926 5.35742 17.8926 5.35742V8.33594H16.3652C14.8613 8.33594 14.3921 9.26953 14.3921 10.2271V12.5H17.7505L17.2134 16.0005H14.3921V24.4629C20.1812 23.5537 24.6094 18.5439 24.6094 12.5Z" fill="white"/>
</g>
<path d="M65.5046 6.88477C62.3992 6.88477 59.8943 9.38965 59.8943 12.4951C59.8943 15.6006 62.3992 18.1055 65.5046 18.1055C68.6101 18.1055 71.115 15.6006 71.115 12.4951C71.115 9.38965 68.6101 6.88477 65.5046 6.88477ZM65.5046 16.1426C63.4978 16.1426 61.8572 14.5068 61.8572 12.4951C61.8572 10.4834 63.4929 8.84766 65.5046 8.84766C67.5164 8.84766 69.1521 10.4834 69.1521 12.4951C69.1521 14.5068 67.5115 16.1426 65.5046 16.1426ZM72.6531 6.65527C72.6531 7.38281 72.0671 7.96387 71.3445 7.96387C70.6169 7.96387 70.0359 7.37793 70.0359 6.65527C70.0359 5.93262 70.6218 5.34668 71.3445 5.34668C72.0671 5.34668 72.6531 5.93262 72.6531 6.65527ZM76.3689 7.9834C76.2859 6.23047 75.8855 4.67773 74.6013 3.39844C73.322 2.11914 71.7693 1.71875 70.0164 1.63086C68.2097 1.52832 62.7947 1.52832 60.988 1.63086C59.24 1.71387 57.6873 2.11426 56.4031 3.39355C55.1189 4.67285 54.7234 6.22559 54.6355 7.97852C54.533 9.78516 54.533 15.2002 54.6355 17.0068C54.7185 18.7598 55.1189 20.3125 56.4031 21.5918C57.6873 22.8711 59.2351 23.2715 60.988 23.3594C62.7947 23.4619 68.2097 23.4619 70.0164 23.3594C71.7693 23.2764 73.322 22.876 74.6013 21.5918C75.8806 20.3125 76.281 18.7598 76.3689 17.0068C76.4714 15.2002 76.4714 9.79004 76.3689 7.9834ZM74.0349 18.9453C73.6541 19.9023 72.9167 20.6396 71.9548 21.0254C70.5144 21.5967 67.0964 21.4648 65.5046 21.4648C63.9128 21.4648 60.49 21.5918 59.0544 21.0254C58.0974 20.6445 57.3601 19.9072 56.9744 18.9453C56.4031 17.5049 56.5349 14.0869 56.5349 12.4951C56.5349 10.9033 56.408 7.48047 56.9744 6.04492C57.3552 5.08789 58.0925 4.35059 59.0544 3.96484C60.4949 3.39355 63.9128 3.52539 65.5046 3.52539C67.0964 3.52539 70.5193 3.39844 71.9548 3.96484C72.9119 4.3457 73.6492 5.08301 74.0349 6.04492C74.6062 7.48535 74.4744 10.9033 74.4744 12.4951C74.4744 14.0869 74.6062 17.5098 74.0349 18.9453Z" fill="white"/>
<g clip-path="url(#clip1_208_257)">
<path d="M114.5 0.390625C107.815 0.390625 102.391 5.81543 102.391 12.5C102.391 19.1846 107.815 24.6094 114.5 24.6094C121.185 24.6094 126.609 19.1846 126.609 12.5C126.609 5.81543 121.185 0.390625 114.5 0.390625ZM111.048 18.5547C107.688 18.5547 104.993 15.8447 104.993 12.5C104.993 9.15527 107.688 6.44531 111.048 6.44531C112.576 6.44531 113.982 6.98242 115.101 8.02246L113.46 9.61426C112.815 8.98438 111.932 8.68164 111.048 8.68164C108.953 8.68164 107.278 10.415 107.278 12.4951C107.278 14.5752 108.948 16.3086 111.048 16.3086C112.64 16.3086 114.217 15.376 114.471 13.7061H111.048V11.626H116.756C116.819 11.958 116.849 12.29 116.849 12.6367C116.849 16.0938 114.529 18.5547 111.048 18.5547ZM122.288 13.3691V15.1025H120.555V13.3691H118.821V11.6357H120.555V9.90234H122.288V11.6357H124.007V13.3691H122.288Z" fill="white"/>
</g>
<defs>
<clipPath id="clip0_208_257">
<rect width="25" height="25" fill="white"/>
</clipPath>
<clipPath id="clip1_208_257">
<rect width="25" height="25" fill="white" transform="translate(102)"/>
</clipPath>
</defs>
</svg>
