<svg width="47" height="45" viewBox="0 0 47 45" fill="none" xmlns="http://www.w3.org/2000/svg">
<path d="M7.83325 34.238V30.488H11.7499V17.363C11.7499 14.7693 12.5659 12.4646 14.1978 10.449C15.8298 8.43335 17.9513 7.11304 20.5624 6.48804V5.17554C20.5624 4.39429 20.848 3.73022 21.4192 3.18335C21.9904 2.63647 22.6839 2.36304 23.4999 2.36304C24.3159 2.36304 25.0095 2.63647 25.5806 3.18335C26.1518 3.73022 26.4374 4.39429 26.4374 5.17554V6.48804C29.0485 7.11304 31.1701 8.43335 32.802 10.449C34.4339 12.4646 35.2499 14.7693 35.2499 17.363V30.488H39.1666V34.238H7.83325ZM23.4999 39.863C22.4228 39.863 21.5008 39.4958 20.7338 38.7615C19.9668 38.0271 19.5833 37.1443 19.5833 36.113H27.4166C27.4166 37.1443 27.0331 38.0271 26.2661 38.7615C25.4991 39.4958 24.577 39.863 23.4999 39.863ZM15.6666 30.488H31.3333V17.363C31.3333 15.3005 30.5662 13.5349 29.0322 12.0662C27.4982 10.5974 25.6541 9.86304 23.4999 9.86304C21.3458 9.86304 19.5017 10.5974 17.9676 12.0662C16.4336 13.5349 15.6666 15.3005 15.6666 17.363V30.488Z" fill="#F5F5F5"/>
</svg>
