<svg width="16" height="19" viewBox="0 0 16 19" fill="none" xmlns="http://www.w3.org/2000/svg">
<path d="M14.4409 8.67301L11.1589 14.5691C10.5786 15.6117 9.54947 16.3285 8.29794 16.5619C7.04642 16.7954 5.675 16.5263 4.48539 15.8139C3.29577 15.1016 2.38541 14.0042 1.95457 12.7633C1.52372 11.5224 1.60769 10.2395 2.188 9.19701L4.15748 5.65882C4.22045 5.56384 4.32282 5.50078 4.44385 5.48241C4.56489 5.46404 4.69554 5.49174 4.80934 5.55989C4.92315 5.62804 5.0116 5.73156 5.05678 5.84946C5.10196 5.96736 5.1005 6.09085 5.05268 6.1949L3.0832 9.73309C2.84296 10.1457 2.69915 10.6123 2.66015 11.1058C2.62116 11.5993 2.68777 12.1097 2.8561 12.6073C3.02443 13.1049 3.29111 13.5798 3.64059 14.0042C3.99007 14.4286 4.41536 14.7941 4.89167 15.0793C5.36798 15.3645 5.88578 15.5638 6.41488 15.6655C6.94398 15.7672 7.47379 15.7694 7.97344 15.6718C8.47308 15.5742 8.93256 15.3788 9.32508 15.097C9.71761 14.8153 10.0353 14.4528 10.2597 14.0307L13.5417 8.13455C13.6936 7.87675 13.785 7.58477 13.8105 7.27572C13.836 6.96667 13.7952 6.64677 13.6904 6.33477C13.5856 6.02277 13.4189 5.72495 13.2001 5.45877C12.9814 5.19258 12.7149 4.96338 12.4164 4.78462C12.1179 4.60585 11.7933 4.4811 11.4617 4.41769C11.13 4.35428 10.798 4.35348 10.4851 4.41534C10.1722 4.4772 9.88469 4.60047 9.63942 4.77793C9.39414 4.95539 9.19605 5.18347 9.05674 5.44879L6.21243 10.5586C6.09661 10.7667 6.07985 11.0227 6.16584 11.2704C6.25183 11.518 6.43352 11.7371 6.67094 11.8792C6.90836 12.0214 7.18206 12.0751 7.43184 12.0285C7.68162 11.9819 7.88701 11.8389 8.00283 11.6308L10.41 7.30634C10.4358 7.25018 10.4743 7.20142 10.5232 7.16308C10.572 7.12474 10.6302 7.09765 10.694 7.08347C10.7579 7.06928 10.8261 7.06832 10.8943 7.08064C10.9626 7.09296 11.0295 7.1183 11.091 7.15508C11.1524 7.19187 11.207 7.23931 11.2514 7.29448C11.2958 7.34965 11.3291 7.41137 11.3492 7.47581C11.3693 7.54025 11.3758 7.60604 11.3682 7.6691C11.3606 7.73217 11.3391 7.79116 11.3052 7.84242L8.89851 12.166C8.66636 12.5831 8.25467 12.8698 7.754 12.9632C7.25334 13.0566 6.70471 12.949 6.22881 12.664C5.75291 12.379 5.38873 11.94 5.21637 11.4436C5.04402 10.9472 5.07761 10.434 5.30976 10.0169L8.15358 4.90795C8.34958 4.53805 8.62742 4.22031 8.97086 3.97328C9.3143 3.72624 9.71646 3.55487 10.1539 3.46915C10.5913 3.38344 11.0552 3.3851 11.5185 3.47404C11.9818 3.56299 12.4352 3.73743 12.8523 3.98719C13.2694 4.23695 13.6418 4.55702 13.9477 4.92872C14.2536 5.30042 14.4869 5.71629 14.6341 6.15206C14.7812 6.58784 14.8392 7.03477 14.8047 7.46679C14.7701 7.8988 14.6438 8.30724 14.4329 8.66824L14.4409 8.67301Z" fill="#71717A"/>
</svg>
