<svg width="12" height="17" viewBox="0 0 12 17" fill="none" xmlns="http://www.w3.org/2000/svg">
<path d="M3 3.16667C3 1.69391 4.34315 0.5 6 0.5C7.65685 0.5 9 1.69391 9 3.16667V8.5C9 9.97276 7.65685 11.1667 6 11.1667C4.34315 11.1667 3 9.97276 3 8.5V3.16667Z" fill="#71717A"/>
<path d="M1.5 8.18251C1.5 7.81432 1.16421 7.51584 0.75 7.51584C0.335786 7.51584 0 7.81432 0 8.18251V8.49997C0 11.2197 2.29027 13.464 5.25 13.792V15.1667H3.75C3.33579 15.1667 3 15.4651 3 15.8333C3 16.2015 3.33579 16.5 3.75 16.5H8.25C8.66421 16.5 9 16.2015 9 15.8333C9 15.4651 8.66421 15.1667 8.25 15.1667H6.75V13.792C9.70973 13.464 12 11.2197 12 8.49997V8.18251C12 7.81432 11.6642 7.51584 11.25 7.51584C10.8358 7.51584 10.5 7.81432 10.5 8.18251V8.49997C10.5 10.7091 8.48528 12.5 6 12.5C3.51472 12.5 1.5 10.7091 1.5 8.49997V8.18251Z" fill="#71717A"/>
</svg>
