<svg width="22" height="23" viewBox="0 0 22 23" fill="none" xmlns="http://www.w3.org/2000/svg">
<g clip-path="url(#clip0_223_9967)">
<path d="M11 13.2297C14.416 13.2297 17.1875 10.4583 17.1875 7.04224C17.1875 3.62622 14.416 0.854736 11 0.854736C7.58398 0.854736 4.8125 3.62622 4.8125 7.04224C4.8125 10.4583 7.58398 13.2297 11 13.2297ZM16.5 14.6047H14.1324C13.1785 15.043 12.1172 15.2922 11 15.2922C9.88281 15.2922 8.82578 15.043 7.86758 14.6047H5.5C2.46211 14.6047 0 17.0668 0 20.1047V20.7922C0 21.9309 0.923828 22.8547 2.0625 22.8547H19.9375C21.0762 22.8547 22 21.9309 22 20.7922V20.1047C22 17.0668 19.5379 14.6047 16.5 14.6047Z" fill="#71717A"/>
</g>
<defs>
<clipPath id="clip0_223_9967">
<rect y="0.854736" width="22" height="22" rx="5" fill="white"/>
</clipPath>
</defs>
</svg>
