<svg width="19" height="14" viewBox="0 0 19 14" fill="none" xmlns="http://www.w3.org/2000/svg">
<path d="M8.07834 0.918614L9.01975 0.221409C9.41837 -0.0738032 10.0629 -0.0738032 10.4573 0.221409L18.701 6.32352C19.0997 6.61873 19.0997 7.09609 18.701 7.38817L10.4573 13.4934C10.0587 13.7886 9.41413 13.7886 9.01975 13.4934L8.07834 12.7962C7.67548 12.4979 7.68396 12.0111 8.0953 11.719L13.2052 8.11364H1.01774C0.453744 8.11364 0 7.7776 0 7.3599V6.35492C0 5.93723 0.453744 5.60119 1.01774 5.60119H13.2052L8.0953 1.99583C7.67972 1.70375 7.67124 1.21697 8.07834 0.918614Z" fill="#FF8832"/>
</svg>
