<svg width="23" height="23" viewBox="0 0 23 23" fill="none" xmlns="http://www.w3.org/2000/svg">
<path d="M22.5584 9.05939C23.2107 12.9164 21.1685 16.6027 17.4746 18.409C18.0586 19.9408 16.9176 21.5625 15.304 21.5625C14.7094 21.562 14.1377 21.3335 13.7067 20.9239C13.2757 20.5144 13.0182 19.9551 12.9874 19.3613C12.6981 19.3699 10.1034 19.3613 9.55847 19.3326C9.54616 19.6374 9.47388 19.9369 9.34578 20.2138C9.21768 20.4907 9.03626 20.7396 8.8119 20.9464C8.58753 21.1532 8.32462 21.3137 8.03819 21.4188C7.75175 21.5239 7.44742 21.5715 7.14257 21.5589C5.62152 21.4978 4.53935 19.9938 5.03124 18.5078C3.3597 17.9189 1.77261 16.9414 0.556126 15.3273C-0.027858 14.5511 0.534564 13.4496 1.4923 13.4496C3.57263 13.4496 2.93968 11.0162 3.43068 8.49652C4.25859 4.27656 8.67531 1.4375 12.9415 1.4375C17.5451 1.4375 21.7979 4.61213 22.5584 9.05939ZM16.7788 17.4423C18.6655 16.5807 20.4323 14.8947 21.1043 12.8539C22.9227 7.32451 18.2226 2.61176 12.9415 2.61176C9.19281 2.61176 5.29044 5.10133 4.58292 8.72113C4.15482 10.9183 4.80753 14.6216 1.49454 14.6216C2.6149 16.109 4.11484 16.9854 5.70507 17.4989C6.81284 16.5196 8.57423 16.8039 9.29118 18.143C9.92997 18.188 12.8485 18.1961 13.2398 18.1799C13.3978 17.8713 13.6229 17.602 13.8986 17.3917C14.1743 17.1815 14.4935 17.0356 14.8329 16.9649C15.1723 16.8941 15.5233 16.9003 15.86 16.9829C16.1967 17.0655 16.5106 17.2225 16.7788 17.4423ZM9.21437 8.40623C9.21437 6.84564 11.4982 6.8452 11.4982 8.40623C11.4982 9.96727 9.21437 9.96682 9.21437 8.40623ZM14.4509 8.40623C14.4509 6.84564 16.7356 6.8452 16.7356 8.40623C16.7356 9.96727 14.4509 9.96727 14.4509 8.40623ZM8.94304 11.5818C8.78851 10.8208 9.93941 10.5854 10.0939 11.3477L10.0966 11.3603C10.2826 12.3225 11.4376 13.3369 12.977 13.2951C14.5798 13.2529 15.6386 12.2974 15.857 11.3738C16.0573 10.6528 17.1417 10.9084 17.0011 11.6433C16.7662 12.6397 15.5991 14.4285 12.8926 14.4689C10.9811 14.4689 9.25929 13.2183 8.94394 11.5827L8.94304 11.5818Z" fill="#FE8D47"/>
</svg>
